{"title":"Shrek Voor Eeuwig en Altijd-AC3-XviD-DVDRip[Ned]2010 TBS","uid":5988566,"size":1461782403,"categoryP":"video","categoryS":"movies","magnet":"?xt=urn:btih:ce73485e594c60891d13a03c85af821f213a0d21&amp;dn=Shrek+Voor+Eeuwig+en+Altijd-AC3-XviD-DVDRip%5BNed%5D2010+TBS&amp;tr=udp%3A%2F%2Ftracker.openbittorrent.com%3A80&amp;tr=udp%3A%2F%2Fopen.demonii.com%3A1337&amp;tr=udp%3A%2F%2Ftracker.coppersurfer.tk%3A6969&amp;tr=udp%3A%2F%2Fexodus.desync.com%3A6969","seeders":1,"leechers":0,"uploader":"FatFreddy30","files":-1,"time":1290820299,"description":"Shrek Forever After (2010) Alternatieve titels: Shrek Voor Eeuwig en Altijd, The Final Chapter, Shrek 4\n\nVerenigde Staten\nAnimatie / Komedie\n93 minuten\n\ngeregisseerd door Mike Mitchell\nmet de stemmen van Mike Myers, Cameron Diaz en Eddie Murphy\n\nIn plaats van het afschrikken van menig dorpsbewoner is Shrek (Mike Myers) inmiddels een echte familieman geworden. Shrek komt in contact met de gladde praatjesmaker Repelsteeltje. Hierdoor komt hij tot zijn schrik terecht in een alternatieve versie van zijn wereld, Far Far Away, waar er gejaagd wordt op Ogres en hij Fiona (Cameron Diaz) helemaal nooit ontmoet heeft. Aan hem de taak om zijn vertrouwde wereld weer terug te krijgen.\n\nEnglish:\n\nRumpelstiltskin tricks a mid-life crisis burdened Shrek into allowing himself to be erased from existence and cast in a dark alternate timeline where Rumpel rules supreme.\n &lt;a href=&quot;\nhttp://www.imdb.com/title/tt0892791/&quot; rel=&quot;nofollow&quot; target=&quot;_NEW&quot;&gt;\nhttp://www.imdb.com/title/tt0892791/&lt;/a&gt;\n &lt;a href=&quot;\nhttp://moviemeter.nl/film/58677&quot; rel=&quot;nofollow&quot; target=&quot;_NEW&quot;&gt;\nhttp://moviemeter.nl/film/58677&lt;/a&gt;\n\nAudio: Dutch / Nederlands.  No subs / Geen ondertitels.\n\nCover included / bijgevoegd.\n\nGeneral\nComplete name                    : Shrek Voor Eeuwig en Altijd-AC3-XviD-DVDRip[Ned]2010 TBS\\Shrek Voor Eeuwig en Altijd-AC3-XviD-DVDRip[Ned]2010 TBS.avi\nFormat                           : AVI\nFormat/Info                      : Audio Video Interleave\nFile size                        : 1.36 GiB\nDuration                         : 1h 29mn\nOverall bit rate                 : 2 181 Kbps\nWriting application              : VirtualDubMod 1.5.4.1 (build 2178/release)\nWriting library                  : VirtualDubMod build 2178/release\n\nVideo\nID                               : 0\nFormat                           : MPEG-4 Visual\nFormat profile                   : Simple@L3\nFormat settings, BVOP            : No\nFormat settings, QPel            : No\nFormat settings, GMC             : No warppoints\nFormat settings, Matrix          : Default (H.263)\nCodec ID                         : XVID\nCodec ID/Hint                    : XviD\nDuration                         : 1h 29mn\nBit rate                         : 1 723 Kbps\nWidth                            : 720 pixels\nHeight                           : 304 pixels\nDisplay aspect ratio             : 2.35:1\nFrame rate                       : 25.000 fps\nResolution                       : 8 bits\nColorimetry                      : 4:2:0\nScan type                        : Progressive\nBits/(Pixel*Frame)               : 0.315\nStream size                      : 1.08 GiB (79%)\nWriting library                  : XviD 1.1.2 (UTC 2006-11-01)\n\nAudio\nID                               : 1\nFormat                           : AC-3\nFormat/Info                      : Audio Coding 3\nCodec ID                         : 2000\nDuration                         : 1h 29mn\nBit rate mode                    : Constant\nBit rate                         : 448 Kbps\nChannel(s)                       : 6 channels\nChannel positions                : Front: L C R, Surround: L R, LFE\nSampling rate                    : 48.0 KHz\nStream size                      : 286 MiB (21%)\nAlignment                        : Split accross interleaves\nInterleave, duration             : 40 ms (1.00 video frame)\nInterleave, preload duration     : 500 ms\n\nBlackbeard  TBS.","torrent":{"xt":"urn:btih:ce73485e594c60891d13a03c85af821f213a0d21","amp;dn":"Shrek+Voor+Eeuwig+en+Altijd-AC3-XviD-DVDRip%5BNed%5D2010+TBS","amp;tr":["udp%3A%2F%2Ftracker.openbittorrent.com%3A80","udp%3A%2F%2Fopen.demonii.com%3A1337","udp%3A%2F%2Ftracker.coppersurfer.tk%3A6969","udp%3A%2F%2Fexodus.desync.com%3A6969"],"infoHash":"ce73485e594c60891d13a03c85af821f213a0d21","infoHashBuffer":{"type":"Buffer","data":[206,115,72,94,89,76,96,137,29,19,160,60,133,175,130,31,33,58,13,33]},"announce":[],"urlList":[]}}